<?xml version="1.0" encoding="UTF-8" standalone="no"?>
<svg
   width="210mm"
   height="297mm"
   viewBox="0 0 210 297"
   version="1.1"
   id="svg839"
   inkscape:version="1.1-alpha (2a16015, 2021-02-21)"
   sodipodi:docname="couches_terrestres.svg"
   xmlns:inkscape="http://www.inkscape.org/namespaces/inkscape"
   xmlns:sodipodi="http://sodipodi.sourceforge.net/DTD/sodipodi-0.dtd"
   xmlns="http://www.w3.org/2000/svg"
   xmlns:svg="http://www.w3.org/2000/svg">
  <sodipodi:namedview
     id="namedview841"
     pagecolor="#ffffff"
     bordercolor="#666666"
     borderopacity="1.0"
     objecttolerance="10.0"
     gridtolerance="10.0"
     guidetolerance="10.0"
     inkscape:pageshadow="2"
     inkscape:pageopacity="0.0"
     inkscape:pagecheckerboard="0"
     inkscape:document-units="mm"
     showgrid="true"
     inkscape:lockguides="false"
     inkscape:zoom="0.32756266"
     inkscape:cx="154.16898"
     inkscape:cy="358.71"
     inkscape:window-width="1366"
     inkscape:window-height="705"
     inkscape:window-x="-8"
     inkscape:window-y="-8"
     inkscape:window-maximized="1"
     inkscape:current-layer="layer1">
    <inkscape:grid
       type="xygrid"
       id="grid933" />
  </sodipodi:namedview>
  <defs
     id="defs836" />
  <g
     inkscape:label="Calque 1"
     inkscape:groupmode="layer"
     id="layer1">
    <path
       style="fill:#0f00b2;fill-opacity:1;stroke:#080066;stroke-width:1.325;stroke-linecap:butt;stroke-linejoin:miter;stroke-miterlimit:4;stroke-dasharray:none;stroke-opacity:1"
       d="m 37.041666,60.854166 h 55.5625 v -15.875 c 0,0 -12.201098,-2.797987 -31.320918,0.261128 -19.130523,3.060827 -25.564498,8.999289 -25.564498,8.999289 z"
       id="croute-oceanique"
       sodipodi:nodetypes="cccscc" />
    <path
       style="fill:#e4677c;fill-opacity:1;stroke:#d92644;stroke-width:1.326;stroke-linecap:butt;stroke-linejoin:miter;stroke-miterlimit:4;stroke-dasharray:none;stroke-opacity:1"
       d="M 164.04166,60.854166 93.927082,59.531249 V 44.979166 c 0,0 14.552088,10e-7 27.228928,-10.851923 5.84399,-6.345993 13.88733,0.528152 20.81148,0.102198 6.59424,-0.405659 10.41993,-2.983447 19.65851,-2.525924 5.5287,0.273799 10.35317,2.692316 10.35317,2.692316 z"
       id="croute-continentale"
       sodipodi:nodetypes="ccccascc" />
    <path
       style="fill:#a6a6a6;fill-opacity:1;stroke:#808080;stroke-width:1;stroke-linecap:butt;stroke-linejoin:miter;stroke-miterlimit:4;stroke-dasharray:none;stroke-opacity:1"
       d="M 42.333333,79.374999 H 158.75 l 5.29166,-21.166666 c 0,0 -17.27817,1.51938 -36.41336,-1.508738 -9.3263,-1.475873 -13.21479,-8.713377 -27.08663,-8.713377 -47.625003,0 -63.500004,10.222115 -63.500004,10.222115 z"
       id="manteau-sup-litho"
       sodipodi:nodetypes="cccsscc" />
    <path
       style="fill:#737373;fill-opacity:1;stroke:#4d4d4d;stroke-width:1;stroke-linecap:butt;stroke-linejoin:miter;stroke-miterlimit:4;stroke-dasharray:none;stroke-opacity:1"
       d="M 52.916666,115.09375 H 146.84375 L 158.75,76.729167 c 0,0 -20.96473,-11.268083 -58.0064,-11.268083 -39.6875,0 -58.410267,11.268083 -58.410267,11.268083 z"
       id="manteau-sup-astheno"
       sodipodi:nodetypes="cccscc" />
    <path
       style="fill:#404040;fill-opacity:1;stroke:#1a1a1a;stroke-width:1;stroke-linecap:butt;stroke-linejoin:miter;stroke-miterlimit:4;stroke-dasharray:none;stroke-opacity:1"
       d="M 66.145833,158.75 H 134.9375 l 13.22917,-47.625 c 0,0 -13.22917,-10.58333 -47.625,-10.58333 -34.395837,0 -47.625003,10.58333 -47.625003,10.58333 z"
       id="manteau-inferieur"
       sodipodi:nodetypes="cccscc" />
    <path
       style="fill:#ff884c;fill-opacity:1;stroke:#ff5600;stroke-width:1;stroke-linecap:butt;stroke-linejoin:miter;stroke-miterlimit:4;stroke-dasharray:none;stroke-opacity:1"
       d="M 80.697916,209.02083 H 119.0625 l 15.875,-51.59375 c 0,0 -8.03847,-8.33355 -34.4968,-8.33355 -29.104167,0 -34.294867,8.33355 -34.294867,8.33355 z"
       id="noyau-externe"
       sodipodi:nodetypes="cccscc" />
    <path
       style="fill:#bfbfbf;fill-opacity:1;stroke:#999999;stroke-width:1;stroke-linecap:butt;stroke-linejoin:miter;stroke-miterlimit:4;stroke-dasharray:none;stroke-opacity:1"
       d="m 100.54166,269.875 18.52084,-60.85417 c 0,0 -2.7468,-5.11043 -18.6218,-5.11043 -15.875,0 -18.419867,5.11043 -18.419867,5.11043 z"
       id="noyau-interne"
       sodipodi:nodetypes="ccscc" />
    <path
       style="fill:none;stroke:#000000;stroke-width:4;stroke-linecap:round;stroke-linejoin:round;stroke-miterlimit:4;stroke-dasharray:none;stroke-opacity:1"
       d="M 26.458333,26.458333 100.54167,272.52083 174.625,23.8125"
       id="v"
       sodipodi:nodetypes="ccc" />
    <path
       style="fill:none;stroke:#c61e1e;stroke-width:4;stroke-linecap:round;stroke-linejoin:miter;stroke-opacity:1;stroke-miterlimit:4;stroke-dasharray:none"
       d="M 177.27083,34.395833 165.36458,76.729166"
       id="lithosphere" />
    <path
       style="fill:none;stroke:#1ec623;stroke-width:4;stroke-linecap:round;stroke-linejoin:miter;stroke-miterlimit:4;stroke-dasharray:none;stroke-opacity:1"
       d="M 175.94792,58.208334 146.84375,160.07292"
       id="manteau"
       sodipodi:nodetypes="cc" />
    <path
       style="fill:none;stroke:#c61eab;stroke-width:4;stroke-linecap:round;stroke-linejoin:miter;stroke-miterlimit:4;stroke-dasharray:none;stroke-opacity:1"
       d="m 140.22917,158.75 -31.75,108.47917"
       id="noyau"
       sodipodi:nodetypes="cc" />
  </g>
</svg>
